REM DIRINDEX 1\2,1\3,1\4,1\5
REM DIRNAME cjc004,folder01,folder02,folder03,folder04
TITLE ""
FILE "1Q_t_0492-0501.mp3" MP3
  TRACK 01 AUDIO
    TITLE "3:cjc004_2378"
    INDEX 01 00:00:00
  TRACK 02 AUDIO
    TITLE "0:"
    INDEX 01 00:01:09
  TRACK 03 AUDIO
    TITLE "4:cjc004_2379"
    INDEX 01 00:01:36
  TRACK 04 AUDIO
    TITLE "0:"
    INDEX 01 00:02:65
  TRACK 05 AUDIO
    TITLE "5:cjc004_2380"
    INDEX 01 00:03:17
  TRACK 06 AUDIO
    TITLE "0:"
    INDEX 01 00:07:00
  TRACK 07 AUDIO
    TITLE "3:cjc004_2381"
    INDEX 01 00:07:45
  TRACK 08 AUDIO
    TITLE "0:"
    INDEX 01 00:08:60
  TRACK 09 AUDIO
    TITLE "4:cjc004_2382"
    INDEX 01 00:09:10
  TRACK 10 AUDIO
    TITLE "0:"
    INDEX 01 00:10:27
  TRACK 11 AUDIO
    TITLE "5:cjc004_2383"
    INDEX 01 00:10:51
  TRACK 12 AUDIO
    TITLE "0:"
    INDEX 01 00:14:35
  TRACK 13 AUDIO
    TITLE "3:cjc004_2384"
    INDEX 01 00:15:17
  TRACK 14 AUDIO
    TITLE "0:"
    INDEX 01 00:16:30
  TRACK 15 AUDIO
    TITLE "4:cjc004_2385"
    INDEX 01 00:16:55
  TRACK 16 AUDIO
    TITLE "0:"
    INDEX 01 00:17:65
  TRACK 17 AUDIO
    TITLE "5:cjc004_2386"
    INDEX 01 00:18:13
  TRACK 18 AUDIO
    TITLE "0:"
    INDEX 01 00:22:72
  TRACK 19 AUDIO
    TITLE "3:cjc004_2387"
    INDEX 01 00:23:51
  TRACK 20 AUDIO
    TITLE "0:"
    INDEX 01 00:24:69
  TRACK 21 AUDIO
    TITLE "4:cjc004_2388"
    INDEX 01 00:25:25
  TRACK 22 AUDIO
    TITLE "0:"
    INDEX 01 00:26:54
  TRACK 23 AUDIO
    TITLE "5:cjc004_2389"
    INDEX 01 00:27:04
  TRACK 24 AUDIO
    TITLE "0:"
    INDEX 01 00:32:41
  TRACK 25 AUDIO
    TITLE "3:cjc004_2390"
    INDEX 01 00:33:22
  TRACK 26 AUDIO
    TITLE "0:"
    INDEX 01 00:34:43
  TRACK 27 AUDIO
    TITLE "4:cjc004_2391"
    INDEX 01 00:34:71
  TRACK 28 AUDIO
    TITLE "0:"
    INDEX 01 00:36:11
  TRACK 29 AUDIO
    TITLE "5:cjc004_2392"
    INDEX 01 00:36:36
  TRACK 30 AUDIO
    TITLE "0:"
    INDEX 01 00:41:38
  TRACK 31 AUDIO
    TITLE "3:cjc004_2393"
    INDEX 01 00:42:19
  TRACK 32 AUDIO
    TITLE "0:"
    INDEX 01 00:43:33
  TRACK 33 AUDIO
    TITLE "4:cjc004_2394"
    INDEX 01 00:43:66
  TRACK 34 AUDIO
    TITLE "0:"
    INDEX 01 00:45:06
  TRACK 35 AUDIO
    TITLE "5:cjc004_2395"
    INDEX 01 00:45:32
  TRACK 36 AUDIO
    TITLE "0:"
    INDEX 01 00:49:31
  TRACK 37 AUDIO
    TITLE "3:cjc004_2396"
    INDEX 01 00:50:05
  TRACK 38 AUDIO
    TITLE "0:"
    INDEX 01 00:51:32
  TRACK 39 AUDIO
    TITLE "4:cjc004_2397"
    INDEX 01 00:51:63
  TRACK 40 AUDIO
    TITLE "0:"
    INDEX 01 00:53:06
  TRACK 41 AUDIO
    TITLE "5:cjc004_2398"
    INDEX 01 00:53:27
  TRACK 42 AUDIO
    TITLE "0:"
    INDEX 01 00:58:44
  TRACK 43 AUDIO
    TITLE "3:cjc004_2399"
    INDEX 01 00:59:22
  TRACK 44 AUDIO
    TITLE "0:"
    INDEX 01 01:00:33
  TRACK 45 AUDIO
    TITLE "4:cjc004_2400"
    INDEX 01 01:00:57
  TRACK 46 AUDIO
    TITLE "0:"
    INDEX 01 01:01:72
  TRACK 47 AUDIO
    TITLE "5:cjc004_2401"
    INDEX 01 01:02:26
  TRACK 48 AUDIO
    TITLE "0:"
    INDEX 01 01:06:63
  TRACK 49 AUDIO
    TITLE "3:cjc004_2402"
    INDEX 01 01:07:39
  TRACK 50 AUDIO
    TITLE "0:"
    INDEX 01 01:08:62
  TRACK 51 AUDIO
    TITLE "4:cjc004_2403"
    INDEX 01 01:09:16
  TRACK 52 AUDIO
    TITLE "0:"
    INDEX 01 01:10:26
  TRACK 53 AUDIO
    TITLE "5:cjc004_2404"
    INDEX 01 01:10:53
  TRACK 54 AUDIO
    TITLE "0:"
    INDEX 01 01:15:74
  TRACK 55 AUDIO
    TITLE "3:cjc004_2405"
    INDEX 01 01:16:54
  TRACK 56 AUDIO
    TITLE "0:"
    INDEX 01 01:17:59
  TRACK 57 AUDIO
    TITLE "4:cjc004_2406"
    INDEX 01 01:18:13
  TRACK 58 AUDIO
    TITLE "0:"
    INDEX 01 01:19:48
  TRACK 59 AUDIO
    TITLE "5:cjc004_2407"
    INDEX 01 01:19:74
  TRACK 60 AUDIO
    TITLE "0:"
    INDEX 01 01:24:65
